0
SECTION
2
HEADER
9
$INSUNITS
70
4
9
$ACADVER
1
AC1014
9
$HANDSEED
5
FFFF
0
ENDSEC
0
SECTION
2
TABLES
0
TABLE
2
VPORT
5
8
100
AcDbSymbolTable
0
ENDTAB
0
TABLE
2
LTYPE
5
5
100
AcDbSymbolTable
0
LTYPE
5
14
100
AcDbSymbolTableRecord
100
AcDbLinetypeTableRecord
2
BYBLOCK
70
0
0
LTYPE
5
15
100
AcDbSymbolTableRecord
100
AcDbLinetypeTableRecord
2
BYLAYER
70
0
0
LTYPE
5
16
100
AcDbSymbolTableRecord
100
AcDbLinetypeTableRecord
2
DASHED
70
0
3
Dashed __ __ __ __ __ __ __ __ __ __ __ __ __ _
72
65
73
2
40
0.75
49
0.5
74
0
49
-0.25
74
0
0
ENDTAB
0
TABLE
2
LAYER
5
2
100
AcDbSymbolTable
70
2
0
LAYER
5
50
100
AcDbSymbolTableRecord
100
AcDbLayerTableRecord
2
0
70
0
62
7
6
CONTINUOUS
0
ENDTAB
0
TABLE
2
STYLE
5
3
100
AcDbSymbolTable
70
1
0
STYLE
5
11
100
AcDbSymbolTableRecord
100
AcDbTextStyleTableRecord
2
STANDARD
70
0
0
ENDTAB
0
TABLE
2
VIEW
5
6
100
AcDbSymbolTable
70
0
0
ENDTAB
0
TABLE
2
UCS
5
7
100
AcDbSymbolTable
70
0
0
ENDTAB
0
TABLE
2
APPID
5
9
100
AcDbSymbolTable
70
2
0
APPID
5
12
100
AcDbSymbolTableRecord
100
AcDbRegAppTableRecord
2
ACAD
70
0
0
ENDTAB
0
TABLE
2
DIMSTYLE
5
A
100
AcDbSymbolTable
70
1
0
ENDTAB
0
TABLE
2
BLOCK_RECORD
5
1
100
AcDbSymbolTable
70
1
0
BLOCK_RECORD
5
1F
100
AcDbSymbolTableRecord
100
AcDbBlockTableRecord
2
*MODEL_SPACE
0
BLOCK_RECORD
5
1B
100
AcDbSymbolTableRecord
100
AcDbBlockTableRecord
2
*PAPER_SPACE
0
ENDTAB
0
ENDSEC
0
SECTION
2
BLOCKS
0
BLOCK
5
20
100
AcDbEntity
100
AcDbBlockBegin
2
*MODEL_SPACE
0
ENDBLK
5
21
100
AcDbEntity
100
AcDbBlockEnd
0
BLOCK
5
1C
100
AcDbEntity
100
AcDbBlockBegin
2
*PAPER_SPACE
0
ENDBLK
5
1D
100
AcDbEntity
100
AcDbBlockEnd
0
ENDSEC
0
SECTION
2
ENTITIES
0
CIRCLE
5
100
100
AcDbEntity
8
0
100
AcDbCircle
10
671.49998856931927
20
-13.263521326373798
30
0
40
3.5250000000000621
210
0
220
-2.4651903288156624e-32
230
1
0
CIRCLE
5
101
100
AcDbEntity
8
0
100
AcDbCircle
10
601.63894541196225
20
-13.298187284417487
30
0
40
3.5249999999999915
210
0
220
-0
230
1
0
CIRCLE
5
102
100
AcDbEntity
8
0
100
AcDbCircle
10
671.49998856931927
20
27.136478673626264
30
0
40
2.6000000000000512
210
0
220
0
230
1
0
CIRCLE
5
103
100
AcDbEntity
8
0
100
AcDbCircle
10
601.63894541196225
20
27.101812715582575
30
0
40
2.5999999999999801
210
0
220
0
230
1
0
CIRCLE
5
104
100
AcDbEntity
8
0
100
AcDbCircle
10
646.54960986965636
20
27.124097971276505
30
0
40
2.6000000000000512
210
0
220
-0
230
1
0
CIRCLE
5
105
100
AcDbEntity
8
0
100
AcDbCircle
10
626.60916033994476
20
27.114203260926807
30
0
40
2.6000000000000512
210
0
220
-0
230
1
0
CIRCLE
5
106
100
AcDbEntity
8
0
100
AcDbCircle
10
636.59923116999335
20
2.6364786736263799
30
0
40
2.5999999999999801
210
0
220
-0
230
1
0
CIRCLE
5
107
100
AcDbEntity
8
0
100
AcDbCircle
10
636.59923116999335
20
-32.863521326373736
30
0
40
15.500000000000043
210
-0
220
2.4651903288156619e-32
230
1
0
CIRCLE
5
108
100
AcDbEntity
8
0
100
AcDbCircle
10
646.54960986965636
20
-2.8635213263737338
30
0
40
1.7499999999999716
210
0
220
-0
230
1
0
CIRCLE
5
109
100
AcDbEntity
8
0
100
AcDbCircle
10
646.54960986965636
20
7.1364786736262662
30
0
40
1.7499999999999716
210
0
220
-0
230
1
0
CIRCLE
5
110
100
AcDbEntity
8
0
100
AcDbCircle
10
621.1146213948773
20
-48.378896284211493
30
0
40
1.7500000000000426
210
0
220
-0
230
1
0
CIRCLE
5
111
100
AcDbEntity
8
0
100
AcDbCircle
10
652.09923117746393
20
-48.363521317933163
30
0
40
1.7500000000001137
210
0
220
-2.4651903288156619e-32
230
1
0
CIRCLE
5
112
100
AcDbEntity
8
0
100
AcDbCircle
10
621.08385619626029
20
-17.378911567184595
30
0
40
1.7500000000000426
210
0
220
-0
230
1
0
CIRCLE
5
113
100
AcDbEntity
8
0
100
AcDbCircle
10
652.09923117746393
20
-17.363521334814585
30
0
40
1.7500000000001137
210
0
220
-2.4651903288156619e-32
230
1
0
LWPOLYLINE
5
114
100
AcDbEntity
8
0
100
AcDbPolyline
90
4
70
1
43
0.0
10
667.94419379356646
20
-37.792193904643462
42
0.99999999999999989
10
664.3688820336954
20
-35.998553522703226
10
661.67842146078488
20
-41.361521162509945
42
0.99999999999999989
10
665.25373322065593
20
-43.155161544450195
0
CIRCLE
5
115
100
AcDbEntity
8
0
100
AcDbCircle
10
626.60916033994476
20
7.126583963276568
30
0
40
1.7499999999999716
210
0
220
-0
230
1
0
LWPOLYLINE
5
116
100
AcDbEntity
8
0
100
AcDbPolyline
90
4
70
1
43
0.0
10
608.83270515255242
20
-36.026111336053916
42
0.99999998709521587
10
605.25917520039013
20
-37.823299050512048
10
607.9549568474938
20
-43.183593988003935
42
0.99999999999999989
10
611.52848678071962
20
-41.386406235892522
0
CIRCLE
5
117
100
AcDbEntity
8
0
100
AcDbCircle
10
626.61908459756864
20
-2.8734111121778252
30
0
40
1.7499999999999716
210
0
220
-0
230
1
0
LWPOLYLINE
5
118
100
AcDbEntity
8
0
100
AcDbPolyline
90
13
70
1
43
0.0
10
683.49998856931938
20
27.136478673626264
42
0.41421356237309503
10
671.49998856931927
20
39.136478673626151
10
601.62955301302804
20
39.101808054942374
42
0.41427499099236259
10
589.63895132141704
20
27.089903606434032
10
589.678648620133
20
-12.910076695117262
42
0.11677291553305731
10
590.95805288240388
20
-18.289730722058113
10
610.57001957836621
20
-57.286185615538997
42
0.28371753459399207
10
612.35876939650393
20
-58.387590754574212
10
636.61188460151766
20
-58.3635213263737
10
660.86501175021817
20
-58.3635213263737
42
0.28371753459396853
10
662.65266762464307
20
-57.260341528328631
10
682.22592357612496
20
-18.244442417829816
42
0.11677291553308002
10
683.49998830109837
20
-12.863521326373736
0
ENDSEC
0
SECTION
2
OBJECTS
0
DICTIONARY
5
C
100
AcDbDictionary
3
ACAD_GROUP
350
D
3
ACAD_MLINESTYLE
350
17
0
DICTIONARY
5
D
100
AcDbDictionary
0
DICTIONARY
5
1A
330
C
100
AcDbDictionary
0
DICTIONARY
5
17
100
AcDbDictionary
0
ENDSEC
0
EOF
