0
SECTION
2
HEADER
9
$INSUNITS
70
4
9
$ACADVER
1
AC1014
9
$HANDSEED
5
FFFF
0
ENDSEC
0
SECTION
2
TABLES
0
TABLE
2
VPORT
5
8
100
AcDbSymbolTable
0
ENDTAB
0
TABLE
2
LTYPE
5
5
100
AcDbSymbolTable
0
LTYPE
5
14
100
AcDbSymbolTableRecord
100
AcDbLinetypeTableRecord
2
BYBLOCK
70
0
0
LTYPE
5
15
100
AcDbSymbolTableRecord
100
AcDbLinetypeTableRecord
2
BYLAYER
70
0
0
LTYPE
5
16
100
AcDbSymbolTableRecord
100
AcDbLinetypeTableRecord
2
DASHED
70
0
3
Dashed __ __ __ __ __ __ __ __ __ __ __ __ __ _
72
65
73
2
40
0.75
49
0.5
74
0
49
-0.25
74
0
0
ENDTAB
0
TABLE
2
LAYER
5
2
100
AcDbSymbolTable
70
2
0
LAYER
5
50
100
AcDbSymbolTableRecord
100
AcDbLayerTableRecord
2
0
70
0
62
7
6
CONTINUOUS
0
ENDTAB
0
TABLE
2
STYLE
5
3
100
AcDbSymbolTable
70
1
0
STYLE
5
11
100
AcDbSymbolTableRecord
100
AcDbTextStyleTableRecord
2
STANDARD
70
0
0
ENDTAB
0
TABLE
2
VIEW
5
6
100
AcDbSymbolTable
70
0
0
ENDTAB
0
TABLE
2
UCS
5
7
100
AcDbSymbolTable
70
0
0
ENDTAB
0
TABLE
2
APPID
5
9
100
AcDbSymbolTable
70
2
0
APPID
5
12
100
AcDbSymbolTableRecord
100
AcDbRegAppTableRecord
2
ACAD
70
0
0
ENDTAB
0
TABLE
2
DIMSTYLE
5
A
100
AcDbSymbolTable
70
1
0
ENDTAB
0
TABLE
2
BLOCK_RECORD
5
1
100
AcDbSymbolTable
70
1
0
BLOCK_RECORD
5
1F
100
AcDbSymbolTableRecord
100
AcDbBlockTableRecord
2
*MODEL_SPACE
0
BLOCK_RECORD
5
1B
100
AcDbSymbolTableRecord
100
AcDbBlockTableRecord
2
*PAPER_SPACE
0
ENDTAB
0
ENDSEC
0
SECTION
2
BLOCKS
0
BLOCK
5
20
100
AcDbEntity
100
AcDbBlockBegin
2
*MODEL_SPACE
0
ENDBLK
5
21
100
AcDbEntity
100
AcDbBlockEnd
0
BLOCK
5
1C
100
AcDbEntity
100
AcDbBlockBegin
2
*PAPER_SPACE
0
ENDBLK
5
1D
100
AcDbEntity
100
AcDbBlockEnd
0
ENDSEC
0
SECTION
2
ENTITIES
0
CIRCLE
5
100
100
AcDbEntity
8
0
100
AcDbCircle
10
-1074.4857286719489
20
41.25
30
0
40
2.6000000000000512
210
0
220
0
230
1
0
CIRCLE
5
101
100
AcDbEntity
8
0
100
AcDbCircle
10
-1144.3467718293059
20
41.215334041956169
30
0
40
2.6000000000000512
210
0
220
0
230
1
0
CIRCLE
5
102
100
AcDbEntity
8
0
100
AcDbCircle
10
-1074.4857286719489
20
0.84999999999999964
30
0
40
3.5250000000000621
210
0
220
0
230
1
0
CIRCLE
5
103
100
AcDbEntity
8
0
100
AcDbCircle
10
-1144.3467718293059
20
0.81533404195616832
30
0
40
3.5249999999999204
210
0
220
0
230
1
0
CIRCLE
5
104
100
AcDbEntity
8
0
100
AcDbCircle
10
-1157.4758043898892
20
71.24995567908897
30
0
40
2.7500000000000568
210
0
220
0
230
1
0
LWPOLYLINE
5
105
100
AcDbEntity
8
0
100
AcDbPolyline
90
4
70
1
43
0.0
10
-1066.7258043898892
20
57.249955679088842
10
-1066.7258043898894
20
51.749955679088728
42
-0.99999999999999989
10
-1072.2258043898892
20
51.749955679088586
10
-1072.2258043898892
20
57.2499556790887
42
-0.99999999999999989
0
LWPOLYLINE
5
106
100
AcDbEntity
8
0
100
AcDbPolyline
90
4
70
1
43
0.0
10
-1071.4758045944072
20
17.249999999999943
42
0.99999999999999989
10
-1067.475804594407
20
17.249999999999943
10
-1067.475804594407
20
25.250000000000057
42
0.99999999999999989
10
-1071.4758045944072
20
25.250000000000057
0
CIRCLE
5
107
100
AcDbEntity
8
0
100
AcDbCircle
10
-1093.8864860638043
20
-34.249999991559292
30
0
40
1.7500000000001137
210
-0
220
0
230
1
0
CIRCLE
5
108
100
AcDbEntity
8
0
100
AcDbCircle
10
-1093.8864860638043
20
-3.2500000084407077
30
0
40
1.7500000000001137
210
-0
220
0
230
1
0
CIRCLE
5
109
100
AcDbEntity
8
0
100
AcDbCircle
10
-1109.3864860712749
20
-18.75
30
0
40
15.500000000000114
210
-0
220
0
230
1
0
LWPOLYLINE
5
110
100
AcDbEntity
8
0
100
AcDbPolyline
90
4
70
1
43
0.0
10
-1106.8361308886047
20
51.261058381810471
42
0.99999999999999989
10
-1112.0360838546194
20
51.238941618189813
10
-1112.006311081748
20
44.238956391826747
42
0.99999999999999989
10
-1106.8063581157328
20
44.261073155447406
0
LWPOLYLINE
5
111
100
AcDbEntity
8
0
100
AcDbPolyline
90
4
70
1
43
0.0
10
-1104.4758043898892
20
74.249642181515583
10
-1097.4758043898892
20
74.249642181515583
10
-1097.4758043898892
20
68.24964218151564
10
-1104.4758043898892
20
68.24964218151564
0
LWPOLYLINE
5
112
100
AcDbEntity
8
0
100
AcDbPolyline
90
2
70
1
43
0.0
10
-1109.4324351938976
20
73.849593944856053
42
1.0173266867397877
10
-1109.4298552672667
20
68.65036173423303
42
1.0173266867397366
0
LWPOLYLINE
5
113
100
AcDbEntity
8
0
100
AcDbPolyline
90
4
70
1
43
0.0
10
-1121.4758043898892
20
68.24964218151564
10
-1121.4758043898892
20
74.249642181515583
10
-1114.4758043898892
20
74.249642181515583
10
-1114.4758043898892
20
68.24964218151564
0
LWPOLYLINE
5
114
100
AcDbEntity
8
0
100
AcDbPolyline
90
6
70
1
43
0.0
10
-1137.4758043898892
20
74.049955679088981
10
-1133.8854977106093
20
74.049955679088981
10
-1129.4261732648963
20
74.030156409297689
42
-1.0049011057352071
10
-1129.4535518722487
20
68.430290267522906
10
-1133.4758043898892
20
68.449955679088959
10
-1137.4758043898892
20
68.449955679088959
42
-0.99999999999999989
0
LWPOLYLINE
5
115
100
AcDbEntity
8
0
100
AcDbPolyline
90
5
70
1
43
0.0
10
-1109.433328377193
20
75.649593723251201
10
-1115.9759945724645
20
75.622430541739902
10
-1115.988449562496
20
78.622404687165783
10
-1102.8811607141772
20
78.628908694331159
10
-1102.8906384464467
20
75.628923665603338
0
LWPOLYLINE
5
116
100
AcDbEntity
8
0
100
AcDbPolyline
90
8
70
1
43
0.0
10
-1113.0325749247297
20
66.946785672789986
42
0.38084987392243191
10
-1115.9178763838825
20
64.189009551594438
42
0.38919942242935823
10
-1112.9262832112076
20
61.450114513818825
10
-1109.4262841345599
20
61.453588004776378
10
-1105.9262833343209
20
61.453588004776378
42
0.38919942242942823
10
-1102.9374097848606
20
64.195450627911157
42
0.3808498739224338
10
-1105.8254467112076
20
66.950361943531362
10
-1109.4290117052647
20
66.950361943526531
0
CIRCLE
5
117
100
AcDbEntity
8
0
100
AcDbCircle
10
-1124.9018610450084
20
-3.2653902408107172
30
0
40
1.7500000000001137
210
-0
220
0
230
1
0
LWPOLYLINE
5
118
100
AcDbEntity
8
0
100
AcDbPolyline
90
10
70
1
43
0.0
10
-1132.3209748433092
20
15.227255981572654
10
-1132.3328838719913
20
27.227250072197933
42
-0.41421356040907825
10
-1128.3368555448326
20
31.231217778606705
10
-1109.4112967214435
20
31.25
10
-1090.4857285780718
20
31.250000000000284
42
-0.41421356040911045
10
-1086.4857285780718
20
27.250000026822363
10
-1086.4857284976056
20
15.250000026822192
42
-0.41421356433711087
10
-1090.4857284976056
20
11.25
10
-1109.4013724613765
20
11.25
10
-1128.3170071100515
20
11.231227627618283
42
-0.41421356433703899
0
CIRCLE
5
119
100
AcDbEntity
8
0
100
AcDbCircle
10
-1124.8710958463912
20
-34.265374957837622
30
0
40
1.7500000000001137
210
-0
220
0
230
1
0
LWPOLYLINE
5
120
100
AcDbEntity
8
0
100
AcDbPolyline
90
4
70
1
43
0.0
10
-1151.3329504376404
20
17.208674146800718
42
0.99999999999999989
10
-1147.3329518820638
20
17.212073468760138
10
-1147.3397505259134
20
25.212070498578498
42
0.99999999999999989
10
-1151.33974908149
20
25.208671176619077
0
LWPOLYLINE
5
121
100
AcDbEntity
8
0
100
AcDbPolyline
90
20
70
1
43
0.0
10
-1099.4758043898892
20
88.749955679088544
10
-1119.4758043898892
20
88.749955679088544
10
-1156.3430301626429
20
81.24995567908897
10
-1167.4758043898892
20
81.24995567908897
10
-1167.4758043898892
20
61.24995567908897
10
-1156.3467656516302
20
41.203424933073904
10
-1156.3070686211354
20
1.203444631256616
42
0.11677291553304232
10
-1155.0276643588647
20
-4.1762093956843707
10
-1135.4156976629022
20
-43.172664289165539
42
0.28371753459370536
10
-1133.6269478447643
20
-44.274069428200249
10
-1109.3738326397506
20
-44.249999999999972
10
-1085.1207054910501
20
-44.249999999999972
42
0.28371753459394194
10
-1083.3330496166257
20
-43.146820201954803
10
-1063.7597936651437
20
-4.1309210914560834
42
0.11677291553309639
10
-1062.4857289401698
20
1.249999999999996
10
-1062.4857286719489
20
41.25
10
-1058.4758043898889
20
54.749955679088629
10
-1058.4758043898889
20
67.249955679088771
10
-1085.4758043898889
20
67.249955679088771
10
-1085.4758043898889
20
81.249955679088828
0
ENDSEC
0
SECTION
2
OBJECTS
0
DICTIONARY
5
C
100
AcDbDictionary
3
ACAD_GROUP
350
D
3
ACAD_MLINESTYLE
350
17
0
DICTIONARY
5
D
100
AcDbDictionary
0
DICTIONARY
5
1A
330
C
100
AcDbDictionary
0
DICTIONARY
5
17
100
AcDbDictionary
0
ENDSEC
0
EOF
