0
SECTION
2
HEADER
9
$INSUNITS
70
4
9
$ACADVER
1
AC1014
9
$HANDSEED
5
FFFF
0
ENDSEC
0
SECTION
2
TABLES
0
TABLE
2
VPORT
5
8
100
AcDbSymbolTable
0
ENDTAB
0
TABLE
2
LTYPE
5
5
100
AcDbSymbolTable
0
LTYPE
5
14
100
AcDbSymbolTableRecord
100
AcDbLinetypeTableRecord
2
BYBLOCK
70
0
0
LTYPE
5
15
100
AcDbSymbolTableRecord
100
AcDbLinetypeTableRecord
2
BYLAYER
70
0
0
LTYPE
5
16
100
AcDbSymbolTableRecord
100
AcDbLinetypeTableRecord
2
DASHED
70
0
3
Dashed __ __ __ __ __ __ __ __ __ __ __ __ __ _
72
65
73
2
40
0.75
49
0.5
74
0
49
-0.25
74
0
0
ENDTAB
0
TABLE
2
LAYER
5
2
100
AcDbSymbolTable
70
2
0
LAYER
5
50
100
AcDbSymbolTableRecord
100
AcDbLayerTableRecord
2
0
70
0
62
7
6
CONTINUOUS
0
ENDTAB
0
TABLE
2
STYLE
5
3
100
AcDbSymbolTable
70
1
0
STYLE
5
11
100
AcDbSymbolTableRecord
100
AcDbTextStyleTableRecord
2
STANDARD
70
0
0
ENDTAB
0
TABLE
2
VIEW
5
6
100
AcDbSymbolTable
70
0
0
ENDTAB
0
TABLE
2
UCS
5
7
100
AcDbSymbolTable
70
0
0
ENDTAB
0
TABLE
2
APPID
5
9
100
AcDbSymbolTable
70
2
0
APPID
5
12
100
AcDbSymbolTableRecord
100
AcDbRegAppTableRecord
2
ACAD
70
0
0
ENDTAB
0
TABLE
2
DIMSTYLE
5
A
100
AcDbSymbolTable
70
1
0
ENDTAB
0
TABLE
2
BLOCK_RECORD
5
1
100
AcDbSymbolTable
70
1
0
BLOCK_RECORD
5
1F
100
AcDbSymbolTableRecord
100
AcDbBlockTableRecord
2
*MODEL_SPACE
0
BLOCK_RECORD
5
1B
100
AcDbSymbolTableRecord
100
AcDbBlockTableRecord
2
*PAPER_SPACE
0
ENDTAB
0
ENDSEC
0
SECTION
2
BLOCKS
0
BLOCK
5
20
100
AcDbEntity
100
AcDbBlockBegin
2
*MODEL_SPACE
0
ENDBLK
5
21
100
AcDbEntity
100
AcDbBlockEnd
0
BLOCK
5
1C
100
AcDbEntity
100
AcDbBlockBegin
2
*PAPER_SPACE
0
ENDBLK
5
1D
100
AcDbEntity
100
AcDbBlockEnd
0
ENDSEC
0
SECTION
2
ENTITIES
0
CIRCLE
5
100
100
AcDbEntity
8
0
100
AcDbCircle
10
-717.8508049693595
20
-52.03314043129226
30
0
40
2.5999999999999091
210
0
220
0
230
1
0
CIRCLE
5
101
100
AcDbEntity
8
0
100
AcDbCircle
10
-648.001620832958
20
-52.03314043129226
30
0
40
2.5999999999999091
210
-0
220
0
230
1
0
CIRCLE
5
102
100
AcDbEntity
8
0
100
AcDbCircle
10
-717.85080496935939
20
-92.433140431292429
30
0
40
3.4999999999999432
210
-2.4651903288156619e-32
220
-6.7034987460370654e-64
230
1
0
CIRCLE
5
103
100
AcDbEntity
8
0
100
AcDbCircle
10
-648.00162083295788
20
-92.433140431292429
30
0
40
3.4999999999999432
210
-2.4651903288156619e-32
220
-6.7034987460370654e-64
230
1
0
CIRCLE
5
104
100
AcDbEntity
8
0
100
AcDbCircle
10
-673.07621290115878
20
-35.500000000000263
30
0
40
1.7499999999999716
210
-2.4651903288156619e-32
220
-6.7034987460370654e-64
230
1
0
CIRCLE
5
105
100
AcDbEntity
8
0
100
AcDbCircle
10
-653.07621290115878
20
-35.500000000000263
30
0
40
1.7499999999999716
210
-2.4651903288156619e-32
220
-6.7034987460370654e-64
230
1
0
CIRCLE
5
106
100
AcDbEntity
8
0
100
AcDbCircle
10
-667.40237822481345
20
-96.533140439733117
30
0
40
1.7500000000001137
210
0
220
-0
230
1
0
CIRCLE
5
107
100
AcDbEntity
8
0
100
AcDbCircle
10
-662.95199953262102
20
-42.03314043129226
30
0
40
2.5999999999999091
210
0
220
-0
230
1
0
LWPOLYLINE
5
108
100
AcDbEntity
8
0
100
AcDbPolyline
90
3
70
1
43
0.0
10
-666.94919624736508
20
-10.033140431292512
42
1.5509902001695153
10
-655.25962456496381
20
-18.736357030106277
10
-659.20322955495044
20
-10.033140431292662
0
CIRCLE
5
109
100
AcDbEntity
8
0
100
AcDbCircle
10
-682.92621290115881
20
-124.00000000000021
30
0
40
1.7499999999999716
210
-2.4651903288156619e-32
220
-6.7034987460370654e-64
230
1
0
CIRCLE
5
110
100
AcDbEntity
8
0
100
AcDbCircle
10
-702.90042626969648
20
-42.03314043129226
30
0
40
2.5999999999999091
210
0
220
0
230
1
0
CIRCLE
5
111
100
AcDbEntity
8
0
100
AcDbCircle
10
-698.45004757750405
20
-96.533140439733117
30
0
40
1.7500000000001137
210
0
220
0
230
1
0
CIRCLE
5
112
100
AcDbEntity
8
0
100
AcDbCircle
10
-712.77621290115871
20
-35.500000000000263
30
0
40
1.7499999999999716
210
-2.4651903288156619e-32
220
-6.7034987460370654e-64
230
1
0
CIRCLE
5
113
100
AcDbEntity
8
0
100
AcDbCircle
10
-692.77621290115871
20
-35.500000000000263
30
0
40
1.7499999999999716
210
-2.4651903288156619e-32
220
-6.7034987460370654e-64
230
1
0
CIRCLE
5
114
100
AcDbEntity
8
0
100
AcDbCircle
10
-682.92621290115858
20
-99.000000000000213
30
0
40
1.7499999999999716
210
-2.4651903288156619e-32
220
-6.7034987460370654e-64
230
1
0
CIRCLE
5
115
100
AcDbEntity
8
0
100
AcDbCircle
10
-682.92621290115858
20
-74.000000000000213
30
0
40
1.7500000000001137
210
-0
220
0
230
1
0
CIRCLE
5
116
100
AcDbEntity
8
0
100
AcDbCircle
10
-682.92621290115858
20
-49.000000000000206
30
0
40
1.7499999999999716
210
-2.4651903288156619e-32
220
-6.7034987460370654e-64
230
1
0
CIRCLE
5
117
100
AcDbEntity
8
0
100
AcDbCircle
10
-682.92621290115881
20
-24.000000000000206
30
0
40
1.7499999999999716
210
-2.4651903288156619e-32
220
-6.7034987460370654e-64
230
1
0
LWPOLYLINE
5
118
100
AcDbEntity
8
0
100
AcDbPolyline
90
20
70
1
43
0.0
10
-699.53207756693598
20
-129.50000000000034
10
-666.32034823538152
20
-129.50000000000034
42
0.21335818962667957
10
-664.8299605974164
20
-128.83369587560344
10
-639.05929520504355
20
-100.03531550604806
42
0.18454596514477917
10
-636.00162110117901
20
-92.033140431292267
10
-636.00162110117901
20
-52.033140431292267
42
0.10676436079355285
10
-637.07136325772501
20
-47.080417654701606
10
-653.70682558226576
20
-10.367300544975544
42
0.090957286557902708
10
-654.11839820285491
20
-9.7744759679162012
10
-659.34113274387482
20
-4.5817216083922681
42
0.19816439864752242
10
-660.75126975987632
20
-4.0000000000003713
10
-705.10115604244118
20
-4.0000000000002096
42
0.19816439864751645
10
-706.51129305844267
20
-4.5817216083922583
10
-711.73402759946259
20
-9.7744759679162136
42
0.090957286557963257
10
-712.14560022005173
20
-10.367300544975564
10
-728.78106278890289
20
-47.08041754399958
42
0.10676436079355264
10
-729.8508047011386
20
-52.03314043129226
10
-729.8508047011386
20
-92.033140431292253
42
0.18454596514479357
10
-726.79313059727394
20
-100.03531550604806
10
-701.0224652049011
20
-128.83369587560341
42
0.21335818962664907
0
LWPOLYLINE
5
119
100
AcDbEntity
8
0
100
AcDbPolyline
90
3
70
1
43
0.0
10
-710.59280126002091
20
-18.736356926073995
42
1.5509902115008314
10
-698.90322955495105
20
-10.033140431292541
10
-706.64919624736604
20
-10.033140431292662
0
ENDSEC
0
SECTION
2
OBJECTS
0
DICTIONARY
5
C
100
AcDbDictionary
3
ACAD_GROUP
350
D
3
ACAD_MLINESTYLE
350
17
0
DICTIONARY
5
D
100
AcDbDictionary
0
DICTIONARY
5
1A
330
C
100
AcDbDictionary
0
DICTIONARY
5
17
100
AcDbDictionary
0
ENDSEC
0
EOF
